<svg width="44" height="90" viewBox="0 0 44 90" fill="none" xmlns="http://www.w3.org/2000/svg">
<g id="Group 22">
<g id="Group 13">
<g id="Group 10">
<rect id="Rectangle 27" x="17" y="20.5518" width="6.89655" height="7.58621" rx="3.44828" fill="#8BC34A" fill-opacity="0.15"/>
<rect id="Rectangle 28" x="18.0352" y="21.2415" width="6.89655" height="7.58621" rx="3.44828" fill="#4CAF50" fill-opacity="0.15"/>
</g>
<g id="Group 12">
<rect id="Rectangle 29" x="24.2422" y="25.7241" width="6.89655" height="7.58621" rx="3.44828" fill="#8BC34A" fill-opacity="0.15"/>
<rect id="Rectangle 30" x="25.2773" y="26.4138" width="6.89655" height="7.58621" rx="3.44828" fill="#4CAF50" fill-opacity="0.15"/>
</g>
<g id="Group 11">
<rect id="Rectangle 31" x="30.4492" y="19.8621" width="6.89655" height="7.58621" rx="3.44828" fill="#8BC34A" fill-opacity="0.15"/>
<rect id="Rectangle 32" x="31.4844" y="20.5518" width="6.89655" height="7.58621" rx="3.44828" fill="#4CAF50" fill-opacity="0.15"/>
</g>
<g id="Group 9">
<rect id="Rectangle 25" x="22.8613" y="14" width="6.89655" height="7.58621" rx="3.44828" fill="#8BC34A" fill-opacity="0.15"/>
<rect id="Rectangle 26" x="23.8965" y="14.6897" width="6.89655" height="7.58621" rx="3.44828" fill="#4CAF50" fill-opacity="0.15"/>
</g>
</g>
<g id="Group 19">
<g id="Group 10_2">
<rect id="Rectangle 27_2" y="6.55176" width="6.89655" height="7.58621" rx="3.44828" fill="#8BC34A" fill-opacity="0.15"/>
<rect id="Rectangle 28_2" x="1.03516" y="7.24146" width="6.89655" height="7.58621" rx="3.44828" fill="#4CAF50" fill-opacity="0.15"/>
</g>
<g id="Group 12_2">
<rect id="Rectangle 29_2" x="7.24219" y="11.7241" width="6.89655" height="7.58621" rx="3.44828" fill="#8BC34A" fill-opacity="0.15"/>
<rect id="Rectangle 30_2" x="8.27734" y="12.4138" width="6.89655" height="7.58621" rx="3.44828" fill="#4CAF50" fill-opacity="0.15"/>
</g>
<g id="Group 11_2">
<rect id="Rectangle 31_2" x="13.4492" y="5.86206" width="6.89655" height="7.58621" rx="3.44828" fill="#8BC34A" fill-opacity="0.15"/>
<rect id="Rectangle 32_2" x="14.4844" y="6.55176" width="6.89655" height="7.58621" rx="3.44828" fill="#4CAF50" fill-opacity="0.15"/>
</g>
<g id="Group 9_2">
<rect id="Rectangle 25_2" x="5.86133" width="6.89655" height="7.58621" rx="3.44828" fill="#8BC34A" fill-opacity="0.15"/>
<rect id="Rectangle 26_2" x="6.89648" y="0.689697" width="6.89655" height="7.58621" rx="3.44828" fill="#4CAF50" fill-opacity="0.15"/>
</g>
</g>
<g id="Group 20">
<g id="Group 10_3">
<rect id="Rectangle 27_3" x="22" y="76.5518" width="6.89655" height="7.58621" rx="3.44828" fill="#8BC34A" fill-opacity="0.15"/>
<rect id="Rectangle 28_3" x="23.0352" y="77.2415" width="6.89655" height="7.58621" rx="3.44828" fill="#4CAF50" fill-opacity="0.15"/>
</g>
<g id="Group 12_3">
<rect id="Rectangle 29_3" x="29.2422" y="81.7241" width="6.89655" height="7.58621" rx="3.44828" fill="#8BC34A" fill-opacity="0.15"/>
<rect id="Rectangle 30_3" x="30.2773" y="82.4138" width="6.89655" height="7.58621" rx="3.44828" fill="#4CAF50" fill-opacity="0.15"/>
</g>
<g id="Group 11_3">
<rect id="Rectangle 31_3" x="35.4492" y="75.8621" width="6.89655" height="7.58621" rx="3.44828" fill="#8BC34A" fill-opacity="0.15"/>
<rect id="Rectangle 32_3" x="36.4844" y="76.5518" width="6.89655" height="7.58621" rx="3.44828" fill="#4CAF50" fill-opacity="0.15"/>
</g>
<g id="Group 9_3">
<rect id="Rectangle 25_3" x="27.8613" y="70" width="6.89655" height="7.58621" rx="3.44828" fill="#8BC34A" fill-opacity="0.15"/>
<rect id="Rectangle 26_3" x="28.8965" y="70.6897" width="6.89655" height="7.58621" rx="3.44828" fill="#4CAF50" fill-opacity="0.15"/>
</g>
</g>
<g id="Group 14">
<g id="Group 10_4">
<rect id="Rectangle 27_4" x="19" y="48.5518" width="6.89655" height="7.58621" rx="3.44828" fill="#8BC34A" fill-opacity="0.15"/>
<rect id="Rectangle 28_4" x="20.0352" y="49.2415" width="6.89655" height="7.58621" rx="3.44828" fill="#4CAF50" fill-opacity="0.15"/>
</g>
<g id="Group 12_4">
<rect id="Rectangle 29_4" x="26.2422" y="53.7241" width="6.89655" height="7.58621" rx="3.44828" fill="#8BC34A" fill-opacity="0.15"/>
<rect id="Rectangle 30_4" x="27.2773" y="54.4138" width="6.89655" height="7.58621" rx="3.44828" fill="#4CAF50" fill-opacity="0.15"/>
</g>
<g id="Group 11_4">
<rect id="Rectangle 31_4" x="32.4492" y="47.8621" width="6.89655" height="7.58621" rx="3.44828" fill="#8BC34A" fill-opacity="0.15"/>
<rect id="Rectangle 32_4" x="33.4844" y="48.5518" width="6.89655" height="7.58621" rx="3.44828" fill="#4CAF50" fill-opacity="0.15"/>
</g>
<g id="Group 9_4">
<rect id="Rectangle 25_4" x="24.8613" y="42" width="6.89655" height="7.58621" rx="3.44828" fill="#8BC34A" fill-opacity="0.15"/>
<rect id="Rectangle 26_4" x="25.8965" y="42.6897" width="6.89655" height="7.58621" rx="3.44828" fill="#4CAF50" fill-opacity="0.15"/>
</g>
</g>
<g id="Group 17">
<g id="Group 10_5">
<rect id="Rectangle 27_5" x="6" y="63.5518" width="6.89655" height="7.58621" rx="3.44828" fill="#8BC34A" fill-opacity="0.15"/>
<rect id="Rectangle 28_5" x="7.03516" y="64.2415" width="6.89655" height="7.58621" rx="3.44828" fill="#4CAF50" fill-opacity="0.15"/>
</g>
<g id="Group 12_5">
<rect id="Rectangle 29_5" x="13.2422" y="68.7241" width="6.89655" height="7.58621" rx="3.44828" fill="#8BC34A" fill-opacity="0.15"/>
<rect id="Rectangle 30_5" x="14.2773" y="69.4138" width="6.89655" height="7.58621" rx="3.44828" fill="#4CAF50" fill-opacity="0.15"/>
</g>
<g id="Group 11_5">
<rect id="Rectangle 31_5" x="19.4492" y="62.8621" width="6.89655" height="7.58621" rx="3.44828" fill="#8BC34A" fill-opacity="0.15"/>
<rect id="Rectangle 32_5" x="20.4844" y="63.5518" width="6.89655" height="7.58621" rx="3.44828" fill="#4CAF50" fill-opacity="0.15"/>
</g>
<g id="Group 9_5">
<rect id="Rectangle 25_5" x="11.8613" y="57" width="6.89655" height="7.58621" rx="3.44828" fill="#8BC34A" fill-opacity="0.15"/>
<rect id="Rectangle 26_5" x="12.8965" y="57.6897" width="6.89655" height="7.58621" rx="3.44828" fill="#4CAF50" fill-opacity="0.15"/>
</g>
</g>
<g id="Group 18">
<g id="Group 10_6">
<rect id="Rectangle 27_6" x="5" y="34.5518" width="6.89655" height="7.58621" rx="3.44828" fill="#8BC34A" fill-opacity="0.15"/>
<rect id="Rectangle 28_6" x="6.03516" y="35.2415" width="6.89655" height="7.58621" rx="3.44828" fill="#4CAF50" fill-opacity="0.15"/>
</g>
<g id="Group 12_6">
<rect id="Rectangle 29_6" x="12.2422" y="39.7241" width="6.89655" height="7.58621" rx="3.44828" fill="#8BC34A" fill-opacity="0.15"/>
<rect id="Rectangle 30_6" x="13.2773" y="40.4138" width="6.89655" height="7.58621" rx="3.44828" fill="#4CAF50" fill-opacity="0.15"/>
</g>
<g id="Group 11_6">
<rect id="Rectangle 31_6" x="18.4492" y="33.8621" width="6.89655" height="7.58621" rx="3.44828" fill="#8BC34A" fill-opacity="0.15"/>
<rect id="Rectangle 32_6" x="19.4844" y="34.5518" width="6.89655" height="7.58621" rx="3.44828" fill="#4CAF50" fill-opacity="0.15"/>
</g>
<g id="Group 9_6">
<rect id="Rectangle 25_6" x="10.8613" y="28" width="6.89655" height="7.58621" rx="3.44828" fill="#8BC34A" fill-opacity="0.15"/>
<rect id="Rectangle 26_6" x="11.8965" y="28.6897" width="6.89655" height="7.58621" rx="3.44828" fill="#4CAF50" fill-opacity="0.15"/>
</g>
</g>
</g>
</svg>
