<svg width="25" height="24" viewBox="0 0 25 24" fill="none" xmlns="http://www.w3.org/2000/svg">
<g id="Icon">
<path id="Icon_2" d="M20.7929 21.7071C21.1834 22.0976 21.8166 22.0976 22.2071 21.7071C22.5976 21.3166 22.5976 20.6834 22.2071 20.2929L20.7929 21.7071ZM16.2071 14.2929C15.8166 13.9024 15.1834 13.9024 14.7929 14.2929C14.4024 14.6834 14.4024 15.3166 14.7929 15.7071L16.2071 14.2929ZM16.5 10C16.5 13.3137 13.8137 16 10.5 16V18C14.9183 18 18.5 14.4183 18.5 10H16.5ZM10.5 16C7.18629 16 4.5 13.3137 4.5 10H2.5C2.5 14.4183 6.08172 18 10.5 18V16ZM4.5 10C4.5 6.68629 7.18629 4 10.5 4V2C6.08172 2 2.5 5.58172 2.5 10H4.5ZM10.5 4C13.8137 4 16.5 6.68629 16.5 10H18.5C18.5 5.58172 14.9183 2 10.5 2V4ZM22.2071 20.2929L16.2071 14.2929L14.7929 15.7071L20.7929 21.7071L22.2071 20.2929Z" fill="white"/>
</g>
</svg>
