<svg width="30" height="30" viewBox="0 0 30 30" fill="none" xmlns="http://www.w3.org/2000/svg">
<g id="Icon">
<path id="Icon_2" d="M5.90923 21.3841C5.42843 21.6559 5.25898 22.2659 5.53074 22.7467C5.8025 23.2275 6.41257 23.397 6.89337 23.1252L5.90923 21.3841ZM23.1066 23.1252C23.5874 23.397 24.1975 23.2275 24.4693 22.7467C24.741 22.2659 24.5716 21.6559 24.0908 21.3841L23.1066 23.1252ZM17.75 12.5C17.75 14.0188 16.5188 15.25 15 15.25V17.25C17.6234 17.25 19.75 15.1234 19.75 12.5H17.75ZM15 15.25C13.4812 15.25 12.25 14.0188 12.25 12.5H10.25C10.25 15.1234 12.3766 17.25 15 17.25V15.25ZM12.25 12.5C12.25 10.9812 13.4812 9.75 15 9.75V7.75C12.3766 7.75 10.25 9.87665 10.25 12.5H12.25ZM15 9.75C16.5188 9.75 17.75 10.9812 17.75 12.5H19.75C19.75 9.87665 17.6234 7.75 15 7.75V9.75ZM15 19C11.6979 19 8.59496 19.866 5.90923 21.3841L6.89337 23.1252C9.28671 21.7724 12.0516 21 15 21V19ZM24.0908 21.3841C21.405 19.866 18.3022 19 15 19V21C17.9484 21 20.7133 21.7724 23.1066 23.1252L24.0908 21.3841ZM25.25 15C25.25 20.6609 20.6609 25.25 15 25.25V27.25C21.7655 27.25 27.25 21.7655 27.25 15H25.25ZM15 25.25C9.33908 25.25 4.75 20.6609 4.75 15H2.75C2.75 21.7655 8.23451 27.25 15 27.25V25.25ZM4.75 15C4.75 9.33908 9.33908 4.75 15 4.75V2.75C8.23451 2.75 2.75 8.23451 2.75 15H4.75ZM15 4.75C20.6609 4.75 25.25 9.33908 25.25 15H27.25C27.25 8.23451 21.7655 2.75 15 2.75V4.75Z" fill="white"/>
</g>
</svg>
