<svg width="35" height="35" viewBox="0 0 35 35" fill="none" xmlns="http://www.w3.org/2000/svg">
<g id="teenyicons:instagram-solid" clip-path="url(#clip0_48_5452)">
<path id="Vector" d="M17.4993 11.6666C15.9523 11.6666 14.4685 12.2812 13.3746 13.3752C12.2806 14.4691 11.666 15.9529 11.666 17.5C11.666 19.0471 12.2806 20.5308 13.3746 21.6247C14.4685 22.7187 15.9523 23.3333 17.4993 23.3333C19.0464 23.3333 20.5302 22.7187 21.6241 21.6247C22.7181 20.5308 23.3327 19.0471 23.3327 17.5C23.3327 15.9529 22.7181 14.4691 21.6241 13.3752C20.5302 12.2812 19.0464 11.6666 17.4993 11.6666Z" fill="#8BC34A"/>
<path id="Vector_2" fill-rule="evenodd" clip-rule="evenodd" d="M10.5 0C7.71523 0 5.04451 1.10625 3.07538 3.07538C1.10625 5.04451 0 7.71523 0 10.5L0 24.5C0 27.2848 1.10625 29.9555 3.07538 31.9246C5.04451 33.8938 7.71523 35 10.5 35H24.5C27.2848 35 29.9555 33.8938 31.9246 31.9246C33.8938 29.9555 35 27.2848 35 24.5V10.5C35 7.71523 33.8938 5.04451 31.9246 3.07538C29.9555 1.10625 27.2848 0 24.5 0L10.5 0ZM9.33333 17.5C9.33333 15.3341 10.1937 13.2568 11.7253 11.7253C13.2568 10.1937 15.3341 9.33333 17.5 9.33333C19.6659 9.33333 21.7432 10.1937 23.2747 11.7253C24.8063 13.2568 25.6667 15.3341 25.6667 17.5C25.6667 19.6659 24.8063 21.7432 23.2747 23.2747C21.7432 24.8063 19.6659 25.6667 17.5 25.6667C15.3341 25.6667 13.2568 24.8063 11.7253 23.2747C10.1937 21.7432 9.33333 19.6659 9.33333 17.5ZM25.6667 9.33333H28V7H25.6667V9.33333Z" fill="#8BC34A"/>
</g>
<defs>
<clipPath id="clip0_48_5452">
<rect width="35" height="35" fill="white"/>
</clipPath>
</defs>
</svg>
