<svg width="24" height="24" viewBox="0 0 24 24" fill="none" xmlns="http://www.w3.org/2000/svg">
<g id="Icon">
<path id="Icon_2" d="M2.45898 12L1.50494 11.7003C1.44367 11.8954 1.44367 12.1045 1.50493 12.2996L2.45898 12ZM21.5434 12L22.4974 12.2997C22.5587 12.1046 22.5587 11.8955 22.4974 11.7004L21.5434 12ZM14.0007 12C14.0007 13.1046 13.1053 14 12.0007 14V16C14.2099 16 16.0007 14.2091 16.0007 12H14.0007ZM12.0007 14C10.8962 14 10.0007 13.1046 10.0007 12H8.00073C8.00073 14.2091 9.79159 16 12.0007 16V14ZM10.0007 12C10.0007 10.8954 10.8962 10 12.0007 10V8C9.79159 8 8.00073 9.79086 8.00073 12H10.0007ZM12.0007 10C13.1053 10 14.0007 10.8954 14.0007 12H16.0007C16.0007 9.79086 14.2099 8 12.0007 8V10ZM3.41303 12.2996C4.56016 8.64733 7.97282 6 12.0012 6V4C7.07427 4 2.90635 7.23842 1.50494 11.7003L3.41303 12.2996ZM12.0012 6C16.0295 6 19.4422 8.64737 20.5893 12.2997L22.4974 11.7004C21.096 7.23846 16.9281 4 12.0012 4V6ZM20.5893 11.7004C19.4422 15.3527 16.0295 18 12.0012 18V20C16.9281 20 21.096 16.7616 22.4974 12.2997L20.5893 11.7004ZM12.0012 18C7.97282 18 4.56015 15.3526 3.41303 11.7003L1.50493 12.2996C2.90633 16.7615 7.07426 20 12.0012 20V18Z" fill="white"/>
</g>
</svg>
